<svg width="100" height="100" viewBox="0 0 100 100" fill="none" xmlns="http://www.w3.org/2000/svg">
<path d="M83.8849 11.7666L99.4632 70.3035C99.9988 72.317 100.135 74.4171 99.865 76.4837C99.5946 78.5504 98.9227 80.5431 97.8875 82.3483C96.8523 84.1534 95.4742 85.7355 93.8318 87.0042C92.1894 88.273 90.3149 89.2035 88.3153 89.7427L52.3385 99.4565C50.3383 99.9977 48.2517 100.136 46.1982 99.865C44.1446 99.5936 42.1643 98.9173 40.3705 97.8747C38.5766 96.8321 37.0044 95.4437 35.7438 93.7889C34.4831 92.1341 33.5586 90.2453 33.0233 88.2305L17.4507 29.6936C16.9151 27.6801 16.7785 25.5801 17.0489 23.5134C17.3192 21.4468 17.9912 19.454 19.0264 17.6489C20.0616 15.8437 21.4397 14.2616 23.0821 12.9929C24.7245 11.7241 26.599 10.7936 28.5985 10.2544L64.5811 0.540589C66.5806 0.00120034 68.666 -0.136292 70.7182 0.135964C72.7705 0.408219 74.7494 1.08489 76.5419 2.12734C78.3345 3.16978 79.9055 4.55759 81.1655 6.2115C82.4254 7.86542 83.3494 9.75305 83.8849 11.7666ZM46.9853 29.1972C46.7935 28.4619 46.4594 27.772 46.0021 27.1672C45.5449 26.5623 44.9734 26.0543 44.3207 25.6725C43.6679 25.2906 42.9466 25.0424 42.1983 24.942C41.45 24.8417 40.6893 24.8912 39.9601 25.0877C39.2308 25.2842 38.5473 25.6239 37.9487 26.0872C37.3502 26.5504 36.8485 27.1283 36.4723 27.7874C36.0962 28.4465 35.853 29.174 35.7569 29.928C35.6607 30.682 35.7134 31.4478 35.9119 32.1812C36.3057 33.6599 37.2666 34.9206 38.5833 35.6859C39.9 36.4511 41.4647 36.6583 42.9331 36.2618C44.4015 35.8654 45.6534 34.8977 46.4133 33.5718C47.1732 32.2458 47.379 30.6702 46.9853 29.1915V29.1972ZM17.3934 51.7993L27.4923 89.7196C28.4845 93.4789 30.4691 96.8975 33.2353 99.6124L30.6962 99.4738C26.5222 99.2531 22.6061 97.3718 19.8094 94.2437C17.0126 91.1156 15.5643 86.9969 15.7828 82.7935L17.3934 51.7993ZM12.0917 43.2687L10.057 82.4934C9.84494 86.5221 10.7448 90.3545 12.4872 93.6906L10.1143 92.7613C8.18176 92.0144 6.41422 90.8915 4.91263 89.4567C3.41104 88.0219 2.20481 86.3033 1.36283 84.399C0.520838 82.4948 0.0595844 80.4421 0.00540096 78.3583C-0.0487825 76.2745 0.305166 74.2004 1.04704 72.2544L12.0917 43.2687Z" fill="url(#paint0_linear_9_586)"/>
<defs>
<linearGradient id="paint0_linear_9_586" x1="50" y1="0" x2="50" y2="100" gradientUnits="userSpaceOnUse">
<stop stop-color="#D6A800"/>
<stop offset="1" stop-color="#FFD333"/>
</linearGradient>
</defs>
</svg>
