<svg width="100" height="100" viewBox="0 0 100 100" fill="none" xmlns="http://www.w3.org/2000/svg">
<path fill-rule="evenodd" clip-rule="evenodd" d="M25 18.5098V99.7997H74.9375V18.5098H25Z" fill="url(#paint0_linear_9_590)"/>
<path fill-rule="evenodd" clip-rule="evenodd" d="M81.4812 18.7039V99.9938H85.925C93.7 99.9938 100 93.8574 100 86.2794V32.3995C100 24.8465 93.7 18.7039 85.925 18.7039H81.4812Z" fill="url(#paint1_linear_9_590)"/>
<path fill-rule="evenodd" clip-rule="evenodd" d="M0 32.4056V86.2855C0 93.8573 6.3625 99.9999 14.225 99.9999H18.5063V18.71H14.225C6.3625 18.7037 0 24.8464 0 32.4056Z" fill="url(#paint2_linear_9_590)"/>
<path fill-rule="evenodd" clip-rule="evenodd" d="M56.05 0H43.8687C36.0562 0 31.3125 5.45945 31.3125 12.185H37.3187C37.3187 8.49944 39.3625 5.6851 43.8687 5.6851H56.05C60.5438 5.6851 62.6562 8.5057 62.6562 12.185H68.6375C68.6375 5.45945 63.8688 0 56.05 0Z" fill="url(#paint3_linear_9_590)"/>
<defs>
<linearGradient id="paint0_linear_9_590" x1="49.9688" y1="18.5098" x2="49.9688" y2="99.7997" gradientUnits="userSpaceOnUse">
<stop stop-color="#EB4E14"/>
<stop offset="1" stop-color="#FF7C4C"/>
</linearGradient>
<linearGradient id="paint1_linear_9_590" x1="90.7406" y1="18.7039" x2="90.7406" y2="99.9938" gradientUnits="userSpaceOnUse">
<stop stop-color="#EB4E14"/>
<stop offset="1" stop-color="#FF7C4C"/>
</linearGradient>
<linearGradient id="paint2_linear_9_590" x1="9.25313" y1="18.71" x2="9.25313" y2="99.9999" gradientUnits="userSpaceOnUse">
<stop stop-color="#EB4E14"/>
<stop offset="1" stop-color="#FF7C4C"/>
</linearGradient>
<linearGradient id="paint3_linear_9_590" x1="49.975" y1="0" x2="49.975" y2="12.185" gradientUnits="userSpaceOnUse">
<stop stop-color="#EB4E14"/>
<stop offset="1" stop-color="#FF7C4C"/>
</linearGradient>
</defs>
</svg>
